# xmcd
#
# Track frame offsets:
#	150
#	15590
#	27125
#	41855
#	58752
#	72767
#	89337
#	100527
#	111805
#	130902
#	150630
#	166930
#
# Disc length: 2333 seconds
#
# Revision: 1
# Processed by: cddbd v1.4PL0 Copyright (c) Steve Scherf et al.
# Submitted via: audiograbber 1.81.03
#
DISCID=91091b0c
DTITLE=Cecilia Toussaint - Cecilia Toussaint
DYEAR=2001
DGENRE=Alternative Rock
TTITLE0=Más de una...
TTITLE1=Latin Funk
TTITLE2=Un minuto de silencio
TTITLE3=Juramento
TTITLE4=El principio del placer
TTITLE5=Sombra
TTITLE6=Aire
TTITLE7=Desciende sobre mi
TTITLE8=Caracol
TTITLE9=Nada le debo yo al miedo
TTITLE10=Como en un sueño
TTITLE11=razón
EXTD=
EXTT0=
EXTT1=Letra: Cecilia Toussaint
EXTT2=
EXTT3=
EXTT4=
EXTT5=
EXTT6=
EXTT7=
EXTT8=
EXTT9=
EXTT10=
EXTT11=
PLAYORDER=
